<svg xmlns="http://www.w3.org/2000/svg" width="24" height="20" viewBox="0 0 24 20"><g><g><path fill="#445b68" d="M21.436 10.685l-8.467 8.467a1.4 1.4 0 0 1-1.98 0l-7.831-7.83.007-.008-.612-.611a6.238 6.238 0 0 1 8.822-8.822l.612.611.61-.611a6.238 6.238 0 0 1 8.839 8.804zM20.29 3.038a4.722 4.722 0 0 0-6.679 0l-1.616 1.608-1.608-1.612a4.723 4.723 0 0 0-6.68 6.68L5.304 11.3l-.004.005 6.722 6.678 2.19-2.19 4.464-4.449-.008-.007 1.622-1.622a4.723 4.723 0 0 0 0-6.678zm-1.228 3.858a2.21 2.21 0 0 0-.593-2.043 2.207 2.207 0 0 0-2.098-.577v-.874a2.979 2.979 0 0 1 3.502 3.494z"/></g></g></svg>